<svg id="visual" viewBox="0 0 900 600" width="900" height="600" xmlns="http://www.w3.org/2000/svg" xmlns:xlink="http://www.w3.org/1999/xlink" version="1.1"><rect x="0" y="0" width="900" height="600" fill="#000000"></rect><g transform="translate(427.7930816594495 300.9368302097812)"><path d="M127.5 -219.1C168.6 -197 207.7 -169.8 231.8 -132.4C255.9 -95 264.9 -47.5 267.1 1.2C269.3 50 264.5 100 238.9 134.6C213.2 169.3 166.6 188.6 123.3 208.1C80 227.6 40 247.3 -3 252.5C-46 257.7 -92 248.3 -127.9 224.6C-163.9 200.8 -189.8 162.7 -204.3 122.8C-218.8 83 -221.9 41.5 -222.9 -0.6C-223.9 -42.7 -222.8 -85.3 -205.4 -120.1C-188 -154.9 -154.2 -181.8 -117.3 -206.3C-80.3 -230.8 -40.2 -252.9 1.5 -255.5C43.2 -258.1 86.3 -241.2 127.5 -219.1" fill="#FFC700"></path></g></svg>