<svg id="visual" viewBox="0 0 900 600" width="900" height="600" xmlns="http://www.w3.org/2000/svg"
    xmlns:xlink="http://www.w3.org/1999/xlink" version="1.1">
    <rect x="0" y="0" width="900" height="600" fill="#000000"></rect>
    <g transform="translate(471.23351648213463 285.3302112161535)">
        <path
            d="M127.1 -218.3C162.1 -199.8 186.3 -160.7 200.8 -120.8C215.3 -81 220.2 -40.5 222.5 1.3C224.8 43.2 224.5 86.3 207.5 121.8C190.5 157.3 156.8 185.2 119.4 210.8C82 236.4 41 259.7 -2.1 263.3C-45.2 266.9 -90.3 250.8 -127 224.8C-163.7 198.8 -191.8 162.9 -215.1 123.8C-238.3 84.7 -256.7 42.3 -263.3 -3.8C-269.9 -50 -264.9 -100 -242 -139.8C-219.2 -179.7 -178.6 -209.3 -135.3 -223C-92 -236.7 -46 -234.3 0 -234.3C46 -234.3 92 -236.7 127.1 -218.3"
            fill="#FFC700"></path>
    </g>
</svg>